<svg width="1920" height="1080" viewBox="0 0 1920 1080" xmlns="http://www.w3.org/2000/svg">
  <defs>
    <linearGradient id="mainGradient" x1="0%" y1="0%" x2="100%" y2="100%">
      <stop offset="0%" style="stop-color:#66bb6a;stop-opacity:1" />
      <stop offset="50%" style="stop-color:#4caf50;stop-opacity:1" />
      <stop offset="100%" style="stop-color:#43a047;stop-opacity:1" />
    </linearGradient>
    
    <radialGradient id="overlayGradient" cx="50%" cy="50%" r="50%">
      <stop offset="0%" style="stop-color:rgba(255,255,255,0.1);stop-opacity:1" />
      <stop offset="100%" style="stop-color:rgba(255,255,255,0);stop-opacity:0" />
    </radialGradient>
    
    <filter id="blur">
      <feGaussianBlur stdDeviation="3"/>
    </filter>
  </defs>
  
  <!-- Main background -->
  <rect width="100%" height="100%" fill="url(#mainGradient)" />
  
  <!-- Decorative curves -->
  <path d="M0,0 Q400,200 800,100 T1600,150 Q1800,200 1920,0 L1920,400 Q1600,300 1200,350 T400,400 Q200,450 0,400 Z" 
        fill="rgba(255,255,255,0.1)" opacity="0.6"/>
  
  <path d="M0,1080 Q300,880 600,950 T1200,900 Q1500,850 1920,1080 L1920,680 Q1500,780 1200,730 T600,680 Q300,630 0,680 Z" 
        fill="rgba(255,255,255,0.1)" opacity="0.4"/>
  
  <!-- Floating circles -->
  <circle cx="200" cy="200" r="80" fill="rgba(255,255,255,0.1)" opacity="0.3">
    <animate attributeName="cy" values="200;150;200" dur="4s" repeatCount="indefinite"/>
  </circle>
  
  <circle cx="1600" cy="800" r="60" fill="rgba(255,255,255,0.1)" opacity="0.4">
    <animate attributeName="cy" values="800;750;800" dur="5s" repeatCount="indefinite"/>
  </circle>
  
  <circle cx="800" cy="400" r="40" fill="rgba(255,255,255,0.1)" opacity="0.5">
    <animate attributeName="cy" values="400;350;400" dur="3s" repeatCount="indefinite"/>
  </circle>
  
  <circle cx="1200" cy="600" r="100" fill="rgba(255,255,255,0.1)" opacity="0.2">
    <animate attributeName="cy" values="600;550;600" dur="6s" repeatCount="indefinite"/>
  </circle>
  
  <!-- Overlay gradient -->
  <rect width="100%" height="100%" fill="url(#overlayGradient)" opacity="0.3"/>
  
  <!-- Subtle texture -->
  <rect width="100%" height="100%" fill="url(#texture)" opacity="0.1"/>
  
  <defs>
    <pattern id="texture" x="0" y="0" width="100" height="100" patternUnits="userSpaceOnUse">
      <circle cx="25" cy="25" r="2" fill="rgba(255,255,255,0.1)"/>
      <circle cx="75" cy="75" r="1.5" fill="rgba(255,255,255,0.1)"/>
      <circle cx="50" cy="10" r="1" fill="rgba(255,255,255,0.1)"/>
      <circle cx="10" cy="90" r="1" fill="rgba(255,255,255,0.1)"/>
      <circle cx="90" cy="30" r="1" fill="rgba(255,255,255,0.1)"/>
    </pattern>
  </defs>
</svg> 